<svg id="Capa_1" enable-background="new 0 0 512.002 512.002" height="512" viewBox="0 0 512.002 512.002" width="512" xmlns="http://www.w3.org/2000/svg"><g><path d="m445.735 189.733c0-27.423-8.802-53.39-25.454-75.094-2.521-3.285-7.229-3.907-10.516-1.385-3.286 2.521-3.906 7.229-1.385 10.516 14.624 19.062 22.354 41.871 22.354 65.963 0 33.576-15.367 64.831-41.518 85.339-11.864-25.395-37.945-43.139-67.936-43.139h-33.186c-13.561 0-24.594-11.033-24.594-24.594 0-23.678-8.971-46.167-25.261-63.324-3.052-3.214-6.299-6.173-9.714-8.868 19.424-33.389 54.776-53.881 93.741-53.881 24.211 0 47.11 7.8 66.224 22.556 3.275 2.53 7.987 1.927 10.52-1.354 2.531-3.278 1.926-7.988-1.354-10.52-21.762-16.802-47.831-25.683-75.39-25.683-44.076 0-84.093 23.029-106.286 60.609-12.11-6.622-25.633-10.387-39.727-10.858-24.715-.818-48.129 8.176-65.881 25.345-16.018 15.49-25.544 35.769-27.259 57.72-21.527 1.689-41.509 10.919-56.891 26.415-17.087 17.214-26.398 40.057-26.219 64.32.367 49.434 41.355 89.65 91.371 89.65h173.696c4.143 0 7.5-3.357 7.5-7.5s-3.357-7.5-7.5-7.5h-173.696c-41.806 0-76.065-33.538-76.371-74.762-.15-20.236 7.615-39.286 21.864-53.642 14.251-14.355 33.24-22.262 53.467-22.262 4.143 0 7.5-3.357 7.5-7.5 0-20.599 8.156-39.831 22.967-54.156 14.802-14.316 34.302-21.842 54.953-21.134 40.112 1.34 72.747 35.581 72.747 76.33 0 21.832 17.762 39.594 39.594 39.594h33.186c32.53 0 59.334 26.012 59.749 57.984.205 15.853-5.81 30.791-16.936 42.063-11.13 11.275-25.983 17.485-41.825 17.485h-27.199c-4.143 0-7.5 3.357-7.5 7.5s3.357 7.5 7.5 7.5h27.199c19.885 0 38.53-7.795 52.5-21.947 13.968-14.15 21.519-32.9 21.26-52.797-.065-5.045-.654-9.971-1.712-14.729 32.29-23.213 51.418-60.291 51.418-100.26z"/><path d="m322.268 48.134c4.143 0 7.5-3.357 7.5-7.5v-33.134c0-4.143-3.357-7.5-7.5-7.5s-7.5 3.357-7.5 7.5v33.134c0 4.142 3.357 7.5 7.5 7.5z"/><path d="m211.534 89.607c1.465 1.464 3.385 2.196 5.304 2.196s3.839-.732 5.304-2.196c2.929-2.93 2.929-7.678 0-10.607l-23.429-23.429c-2.93-2.928-7.678-2.928-10.607 0-2.929 2.93-2.929 7.678 0 10.607z"/><path d="m433.001 289.859c-2.93-2.928-7.678-2.928-10.607 0-2.929 2.93-2.929 7.678 0 10.607l23.429 23.429c1.465 1.464 3.385 2.196 5.304 2.196s3.839-.732 5.304-2.196c2.929-2.93 2.929-7.678 0-10.607z"/><path d="m504.501 182.233h-33.134c-4.143 0-7.5 3.357-7.5 7.5s3.357 7.5 7.5 7.5h33.134c4.143 0 7.5-3.357 7.5-7.5 0-4.142-3.357-7.5-7.5-7.5z"/><path d="m445.823 55.571-23.429 23.429c-2.929 2.93-2.929 7.678 0 10.607 1.465 1.464 3.385 2.196 5.304 2.196s3.839-.732 5.304-2.196l23.429-23.429c2.929-2.93 2.929-7.678 0-10.607-2.931-2.927-7.679-2.927-10.608 0z"/><path d="m159.955 398.392c-3.707-1.855-8.211-.351-10.063 3.353l-16.566 33.134c-1.852 3.705-.351 8.21 3.354 10.063 1.077.539 2.222.794 3.349.794 2.751 0 5.4-1.52 6.714-4.148l16.566-33.134c1.852-3.705.35-8.21-3.354-10.062z"/><path d="m242.789 398.392c-3.706-1.852-8.211-.351-10.063 3.353l-16.567 33.134c-1.852 3.705-.351 8.21 3.354 10.063 1.077.538 2.222.794 3.349.794 2.751 0 5.4-1.52 6.714-4.148l16.567-33.134c1.852-3.705.35-8.21-3.354-10.062z"/><path d="m275.922 464.658c-3.707-1.854-8.211-.352-10.063 3.353l-16.566 33.134c-1.852 3.705-.351 8.21 3.354 10.063 1.077.539 2.222.794 3.349.794 2.751 0 5.4-1.52 6.714-4.148l16.566-33.134c1.852-3.704.35-8.209-3.354-10.062z"/><path d="m193.089 464.658c-3.707-1.854-8.211-.352-10.063 3.353l-16.566 33.134c-1.853 3.705-.351 8.21 3.354 10.063 1.077.539 2.222.794 3.349.794 2.751 0 5.4-1.52 6.714-4.148l16.566-33.134c1.852-3.704.35-8.209-3.354-10.062z"/><path d="m325.622 398.392c-3.707-1.855-8.211-.351-10.063 3.353l-16.566 33.134c-1.853 3.705-.351 8.21 3.354 10.063 1.077.539 2.222.794 3.349.794 2.751 0 5.4-1.52 6.714-4.148l16.566-33.134c1.852-3.705.35-8.21-3.354-10.062z"/></g></svg>